<?xml version="1.0" encoding="UTF-8" standalone="no"?>
<!-- Created with Inkscape (http://www.inkscape.org/) -->

<svg
   xmlns:dc="http://purl.org/dc/elements/1.1/"
   xmlns:cc="http://creativecommons.org/ns#"
   xmlns:rdf="http://www.w3.org/1999/02/22-rdf-syntax-ns#"
   xmlns:svg="http://www.w3.org/2000/svg"
   xmlns="http://www.w3.org/2000/svg"
   xmlns:sodipodi="http://sodipodi.sourceforge.net/DTD/sodipodi-0.dtd"
   xmlns:inkscape="http://www.inkscape.org/namespaces/inkscape"
   sodipodi:docname="iot-plain.svg"
   inkscape:version="0.92.4 (5da689c313, 2019-01-14)"
   id="svg8"
   version="1.1"
   viewBox="0 0 6.3499999 6.3500002"
   height="24"
   width="24">
  <defs
     id="defs2" />
  <sodipodi:namedview
     id="base"
     pagecolor="#ffffff"
     bordercolor="#666666"
     borderopacity="1.0"
     inkscape:pageopacity="0.0"
     inkscape:pageshadow="2"
     inkscape:zoom="31.678384"
     inkscape:cx="5.0871033"
     inkscape:cy="9.448749"
     inkscape:document-units="mm"
     showgrid="false"
     inkscape:window-width="1920"
     inkscape:window-height="1017"
     inkscape:window-x="-8"
     inkscape:window-y="-8"
     inkscape:window-maximized="1"
     units="px" />
  <metadata
     id="metadata5">
    <rdf:RDF>
      <cc:Work
         rdf:about="">
        <dc:format>image/svg+xml</dc:format>
        <dc:type
           rdf:resource="http://purl.org/dc/dcmitype/StillImage" />
        <dc:title />
      </cc:Work>
    </rdf:RDF>
  </metadata>
  <g
     transform="translate(342.48855,-120.21372)">
    <g
       transform="translate(-0.4015997,1.937128)">
      <path
         id="path823"
         style="fill:#616161;fill-opacity:1;stroke:none;stroke-width:0.03032123"
         d="m -342.08695,119.97993 h 0.6312 v 2.93886 h -0.6312 z" />
      <path
         id="path825"
         style="fill:#616161;fill-opacity:1;stroke:none;stroke-width:0.03032123"
         d="m -340.96109,121.44824 q 0,-0.65134 0.42975,-1.07437 0.43199,-0.42527 1.02289,-0.42527 0.65358,0 1.08109,0.42751 0.42751,0.42527 0.42751,1.07661 0,0.64686 -0.42303,1.07437 -0.42304,0.42752 -1.06542,0.42752 -0.64239,0 -1.05871,-0.42528 -0.41408,-0.42527 -0.41408,-1.08109 z m 1.48174,-0.91322 q -0.36932,-0.007 -0.59538,0.25517 -0.22607,0.26188 -0.22607,0.67596 0,0.3917 0.23054,0.6491 0.23055,0.2574 0.58196,0.2574 0.36931,0 0.59538,-0.25292 0.2283,-0.25517 0.2283,-0.67149 0,-0.4096 -0.22382,-0.65805 -0.22159,-0.24845 -0.59091,-0.25517 z" />
      <path
         id="path827"
         style="fill:#616161;fill-opacity:1;stroke:none;stroke-width:0.03032123"
         d="m -337.71335,119.97993 h 1.9764 v 0.62448 h -0.67372 v 2.31438 h -0.63343 v -2.31438 h -0.66925 z" />
    </g>
  </g>
</svg>
